<?xml version="1.0" encoding="utf-8"?>
<!-- Generator: Adobe Illustrator 21.1.0, SVG Export Plug-In . SVG Version: 6.00 Build 0)  -->
<svg version="1.1" id="Layer_1" xmlns="http://www.w3.org/2000/svg" xmlns:xlink="http://www.w3.org/1999/xlink" x="0px" y="0px"
	 viewBox="0 0 982.4 315.8" style="enable-background:new 0 0 982.4 315.8;" xml:space="preserve">
<style type="text/css">
	.st0{fill-rule:evenodd;clip-rule:evenodd;fill:#FFFFFF;}
</style>
<g>
	<path d="M270.3,130.7c-12.9,10-22.5,42.9-23.4,55.9c-0.1,1.9-0.3,6.9,1.5,7.8c4.8,2.2,18-14.9,26.1-27.6c1.3-8.9,3.5-24.6,7.3-38.1
		C278.2,127,273.4,128.3,270.3,130.7z"/>
	<path d="M526.5,166c11.5-6.7,24.1-18.9,28.4-32c1.2-3.6,1.8-6.4-1.7-6.7c-14,0-25.8,28.4-27.6,38.6
		C525.7,166.6,526.5,166,526.5,166z"/>
	<path d="M783.5,129.8L783.5,129.8c-2.1-2.8-8,5.1-9,6.7c-9.8,15.3-22.5,52.5-14.1,58c1.8,1.2,6.3-2.2,8-3.6
		c8.3-6.5,19.7-25.2,21.3-30C783.4,152.5,780.6,138.9,783.5,129.8z"/>
	<path d="M816,272.2c-1.6,3.4,0.7,2.9,2.7,1.7c9.1-5.6,23.6-31.2,23.6-31.2C823.4,257.1,817.6,268.6,816,272.2z"/>
	<path d="M981.4,230c-3.9-16-22.6-31.5-40.7-36.3c-8.6-2.3-18.5-2.7-28.1-2.4c0.9-2.8,1.8-5.6,2.8-8.4c5-15.1,10.1-30.6,15.4-45.3
		c0.1-0.3,0.3-0.6,0.4-0.9c1.1-2.5,3.6-8.2,0.9-15c-1.8-4.3-15.5-17.9-20.8-20c-9.7-4-18.6-4.4-26.3-1.1c-7.5,3.2-12.2,9-15.6,15.3
		c-0.7-0.5-1.5-1.1-2.3-1.6c-3.9-6.6-11.3-12.8-25-15.6c-7.5-1.5-13.5-0.1-17.9,4.2c-0.4,0.4-0.8,0.8-1.1,1.2
		c-1.4-1.7-2.7-3.1-3.8-4.2c-5.2-5.2-13.2-11.3-22.3-11.3c0,0,0,0-0.1,0c-1.3,0-2.6,0.2-3.9,0.5c-5.5,1.5-9.4,5.1-12.2,9.2
		c-5.5-0.9-11.8-1-18.1,1c-6.2,2-11.3,5.8-15.5,10.4c-1.6-1.7-8.2-8.1-9-9c-1.2-1.3-2.5-2.6-4-3.9c1-2.7,2-5.3,2.8-7.9
		c5.7-16.5,7.5-29.1,6.5-37.4C741.5,35.3,726,19,703.5,12.8c-0.3-0.1-0.5-0.2-0.8-0.2c-5-1.3-12.3-0.9-17.6,4.3
		c-4.4,4.2-6.1,10.3-4.9,16.9c1.7,11.8-11.1,45.4-20.4,69.9c-0.3,0.9-0.7,1.8-1,2.7c-0.8-0.5-1.7-0.9-2.7-1.4
		c-3.7-1.7-7.6-3-10.7-3.8c-0.9-3.1-2.6-5.8-4.8-7.9c-1.9-1.8-4-3.5-6.3-4.9c-1-1.9-2.2-3.6-3.7-5.1c-11.7-11.1-31.5-16.6-45.2-4.9
		c-2.9,2.5-5.4,5.6-7.5,9.2c-4.1-2.2-8.9-3.6-14.2-3.9c-10.1-0.6-20.6,4.6-26.6,13.1c-1,0.1-1.9,0.2-2.9,0.3
		c-8.1,1.4-15.5,6.2-22.4,14.4c-0.9-1.4-2-2.7-3.3-3.9c-12.2-10.6-30.7-16.2-44.7-5c-2.1,1.7-4.4,3.9-6.9,6.7
		c-1.6-2.1-3.6-3.9-5.8-5.6c-4.8-3.5-10.9-5.9-18.6-7.4c-5.8-1.2-11.5,0.3-15.6,3.9c-1.3,1.2-2.4,2.5-3.3,4
		c-22.7-16.7-39.5-3.9-46.2,3.1c-7.3-11.2-21.2-13.9-26.8-14.9c-5.9-1.2-11.6,0.3-15.7,3.9c-1.7,1.6-3.1,3.4-4,5.5
		c-2.8-3-6.2-5.8-10.2-8.3l-0.7-0.4c-2.1-1.4-5.4-3.4-9.6-4.3c-7.1-1.6-14.1,0.7-19.1,6.3c-1.1,1.2-2.1,2.5-3,3.7
		c-6.4-1.9-15.1-3.3-23.4-0.8c-1.3,0.4-2.5,0.9-3.8,1.4c5.1-10.1,8.2-20.4,7.7-30.2c0-0.2,0-0.5-0.1-0.7C254.6,23,192.2,0,137.8,0
		c-23.7-0.2-51.9,6.1-75.4,16.6C25.7,33.2,10.7,54.5,4.6,69.5c-6.5,15.9-6.1,31.8,1,43.7c2.3,3.8,15,26.5,41.5,28.8
		c0.2,0,0.4,0,0.6,0.1c14.1,0.9,26.8-5,33.3-15.6c4-6.5,4.1-14.2,0.3-20.1c-2-3.1-9.3-8.9-10-10c-0.5-0.8-1-1.5-1.6-2.1
		c11.1-18.5,34.9-30.5,57.8-35.3c-0.3,2.4-0.9,5-1.6,8c-3.3,13.3-10.6,30.9-18.3,49.5c-3.9,9.4-7.9,19-11.6,28.6
		c-0.5,1.3-1.1,2.8-1.7,4.4c-3.8,9.7-9.7,24.3-12.4,38.6c-1,5.4-2.6,13.5-1.6,21.8c-4.5,2-8.3,5.2-11.2,9.6
		c-5.8,8.8-6.9,21.3-2.8,30.9c2.9,6.7,17.5,33.4,51.8,34.7c0.2,0,0.4,0,0.7,0c24-0.3,55.2-17.7,76.5-33.9
		c12.7-9.7,23.6-20.2,31.5-30.3c1.7,2,3.6,3.8,5.8,5.5c7.2,5.5,16.4,8.7,25.4,8.7c0,0,0,0,0.1,0c7.3,0,14.9-2.9,22.6-8.5
		c4.4,3.5,9.9,5.7,16.1,6.3c8.4,0.8,16.9-2,25.6-8.3c5.8,4.6,13.5,8.4,20.6,8.3c6.5-0.1,12.4-3.1,16.2-8.3l0,0
		c1.3-1.7,2.3-3.7,3.3-5.7c0.2-0.3,0.4-0.7,0.6-1.1c0.2,0.1,0.4,0.3,0.6,0.4c0.1,0.1,0.1,0.2,0.2,0.4c3.6,5.9,11.1,13.2,25.7,14.4
		c0.4,0,0.7,0,1.1,0c0.1,0,0.1,0,0.2,0c7.3,0,14.8-2.7,22.5-7.9c6.3,4.9,13.9,7.9,19.9,7.8c6.5-0.1,12.4-3.1,16.2-8.3l-0.1,0
		c1.3-1.7,2.3-3.6,3.4-5.6c0.2-0.3,0.3-0.6,0.5-1c0.3,0.2,0.5,0.3,0.8,0.5c0.2,0.4,0.5,0.8,0.7,1.2c3.9,6,11.9,13.2,27.6,13.5
		c7.8,0.1,15.8-3,23.9-9.3c6.5,6.4,15.1,10.3,25.1,11.3c0.4,0,0.8,0.1,1.2,0.1c13.3,0.3,29.7-4.3,44.8-12.8
		c4.3-2.4,10.3-6.1,16.3-11c7.9,11.9,25.8,22.6,35.7,22.8c12.2,0.2,22.9-5.1,31.6-12.2c11.6,10.6,29.6,15.2,44.3,10.1
		c11.2-3.9,19.7-12.4,26.3-20.4c10,11.8,25.7,21.5,39,22.6c10,0.9,17-2.6,23.4-6.2c5.7-3.3,11.3-8,16.5-13.7
		c1.1,0.9,2.2,1.8,3.5,2.7c0.3,0.5,0.6,0.9,1,1.4c0.9,1.2,1.9,2.4,3.1,3.6c-4,2.9-8,6.2-11.9,9.8c-17,15.5-25.6,31.7-24.9,46.9
		c0,1,0.2,2,0.4,2.9c3.7,16.7,20,34.3,45.4,34.3c1.4,0,2.8-0.1,4.2-0.3c0.4-0.1,0.8-0.1,1.3-0.2c24.1-5.2,44.1-35.1,57.4-61.1
		c6.9-2.4,17.2-3.1,27.5-1.8c12.6,1.7,21.5,5.8,25,9.3c3.5,5.6,9.4,9,15.6,8.8c7.1-0.2,13.4-3.7,17.9-9.8
		C982.4,251.7,983.5,238.6,981.4,230z M108.6,260.2c-11.8,0.1-23.7-4.5-28.4-15.5c-3.3-7.7-0.1-21.6,10.1-21.8
		c7.1-0.1,15.4,5.5,17.2,11.1c0.1,0.4-0.1,0.8-0.4,0.9c-4.1,1.5-11.4,4.4-12.1,9.3c-0.7,4.2,8.7,2.5,11,2.1
		c28.7-4.4,81.4-44.4,83.6-70.1c1.9-23.7-40.2-18.3-54-18.9c-1.1,0-2-0.6-2.7-1.3c-9.2,21.1-17.3,45.4-16.7,65.1
		c0.1,2.7,0.5,4.4-2.6,4.1c-4.8-0.7-9.6-2.5-13-5.8c-7.5-7.4-5.6-19-3.8-28.3c2.9-15.2,10.1-31.8,13.4-40.4
		c11-28.6,25.2-58.3,30.5-79.9c1.9-7.6,2.8-14.1,2.4-19.7c0-1.6-0.2-3.5,1.9-3.6c12.3-0.9,23.9,11.3,23.8,24.1
		c-0.1,23.6-23.3,58.6-32.5,77c16.1-9,31.5-21.6,43-35.4c8.2-9.9,26.6-33.3,25.9-48.3c-2.2-24.3-44-33-65.9-33
		C105.3,31.8,63,48.2,46,78.1c-6.2,11-7.9,28,10.3,25.8c3.4-0.4,3.2,2.9,1.9,4.9c-3.8,6.1-11.5,9-19.5,8.5
		c-23.8-2.6-27.9-23.1-20.3-41.9c15.9-39,77.8-60.5,119.4-60.1c34.3-1.1,92.7,10.3,96.1,45.2c1.4,28.7-42.4,70.4-62.3,84.6
		c-1.5,0.9-0.5,0.8-0.5,0.8c17.5-0.7,45.8,5.1,45.8,28.1C217.2,207.1,143.9,259.8,108.6,260.2z M143.1,211.3
		c1.8-8.7,4.9-18.5,9.1-29.2c0.7,0,1.4,0,2.2,0c5.2-0.1,11.4-0.2,17.2,0.2c-3.8,6.6-11.5,15.5-23.4,25.1
		C146.5,208.8,144.8,210.1,143.1,211.3z M587.8,173.6c-9.7,19.1-42.7,37-65,36.5c-11.2-1.1-17.3-6.9-20.6-13.1
		c-1.3-2.5-2.1-5.3-2.5-8.2c-8.3,10.4-18.3,19.4-27.2,19.3c-33.8-0.6-10.7-45.9-5.4-60.3c0.5-1.3,0.8-1.6,0.6-1.6
		c-0.2-0.1-0.5,0.3-0.5,0.3c-19.6,18.3-39.7,59.6-40,59.3c-1.2,1.7-2.9,2.1-4.3,2.1c-5.1,0.1-16-6.9-16.3-12.7c0-1,0-2.1,0-3.2
		c-8.2,8.9-17.6,16.1-26.1,16c-31.7-2.6-9.6-46.1-4.4-60.3c0.5-1.3,0.8-1.6,0.6-1.6c-0.2-0.1-0.5,0.3-0.5,0.3
		c-19.5,18.3-39.2,59.7-39.5,59.3c-1.2,1.7-2.9,2.1-4.3,2.1c-3.8,0-11-3.9-14.4-8.3c-2.5-3.2-2-6.1-1.6-9.9
		c-8.7,10.4-19.2,19.1-28.6,18.3c-8.7-0.8-13-7-14.6-14.7c-7.7,9-17.3,16.8-25.5,16.9c-11.4,0-23.9-8.1-24.5-20.3
		c-0.7-16.8,14.9-70.5,36-77c6.2-1.9,14.6,0.3,20.2,2.8c2.1,0.9,4,1.9,5.5,2.8c2.4-5.7,4.6-9.8,7.4-12.9c3.3-3.6,6.9-0.9,10.2,1.2
		c6.1,3.8,12.7,10.2,12,17.8c-1,10.7-11.2,28-17.3,38.4c-4,14.8-4.8,27.9-1.3,28c11.9,0.2,28.6-34,32.3-46.3
		c3.6-12.2,6.5-24.2,5.9-35c-0.2-2,1.5-2.4,3.3-2.1c12.6,2.4,18.6,6.4,19.3,15.5c1,13.6-7,27.1-9.6,39.7c0,0.1,0,0.2,0,0.2
		c0.1,0,1-1.6,1.2-1.9c14.8-24.9,24-36.7,29.4-42.5c10.3-11.1,20.2-7.4,29.4,0.5c1.2,1,0.3,2.8,0.3,2.8
		c-2.5,4.8-27.7,69.1-19.9,69.3c3,0.1,6.4-2.4,10-6.1c9-8.1,16.3-21.3,20.5-32.8c4.8-13.1,9-26.4,8.1-38.6c-0.2-1.9,1.5-2.4,3.3-2.1
		c9.3,1.8,18.4,5.7,18.5,16.1c-0.6,14.5-9.1,27.4-10.5,35.6c0,0.1,0,0.2,0,0.2c0.1,0,0.7-1.1,0.8-1.2c20.7-33.4,30.6-44,34.9-47.4
		c8.1-6.5,19.4-0.6,25.4,4.6c1.2,1,0.2,2.8,0.2,2.8c-2.6,4.8-28.5,68.5-20.6,68.9c9.8,0.5,25.6-30.2,29.1-39.5
		c6.9-18.4,17.2-37.1,29.3-39.2c6.1-1,14.6,3.4,19.9,6.7c-1.5-4.1-7.4-8.8-8.1-9.9c-0.7-1.1-0.2-1.7,0.3-2.6c2.9-4.5,8.6-7.7,14-7.4
		c32.9,1.8,10.8,66.2-39.3,82.5c-0.6,0.2-0.9,0.4-1,0.5c-1,0.4-1.6,12.8,2.8,13.4c12.6,1.8,41.8-24.2,48-34.4c1.1-1.8,1.6-2.8,2.5-3
		c3-0.6,8.4,3.4,11.1,7.9C588.5,168.5,589.3,171.1,587.8,173.6z M947.3,245.8c-1.6,0.1-2.7-2.5-2.7-2.5
		c-13.1-16.3-55.8-21.6-75.9-10.2c-7.6,15.5-28,53.2-49.5,57.9c-8.1,1-20.9-4.1-23.1-12.8c-1.1-24,35.9-50.3,55.6-58.4l0.8-1.5
		c4.6-9.4,10.2-24,14-34.1c-7.4,9.9-19.2,24.9-33,24.9c-5.7,0-13.4-5-16.6-9.5c-1.4-1.9-1.8-2.7-2.2-5c-1.4-7.9,1.4-17.8,4.8-27
		c1.3-3.9,2.9-7.7,4.5-11.4c-4.3,3.5-9.4,6-16.3,7.2c-0.3,0.8-0.6,1.6-0.9,2.4c-6.5,16-17.5,31.9-30.4,39.3
		c-4.9,2.8-8.8,4.8-14.6,4.3c-8.6-0.7-17.8-5.1-22.7-11.6c-5.7-7.6-3.9-17.3-2.5-26.2c0.6-3.8,2-9.2,3.9-15.2
		c-4,2.7-8.6,4.8-14.2,6.1c-0.4,1.2-0.9,2.3-1.2,3.4c-0.3,0.8-0.7,1.7-1.1,2.5l0,0c-3.4,8.2-7.4,15.4-10.7,19.8
		c-6.5,8.6-13.9,16.6-22.8,19.8c-11.8,4.2-28.7-2.3-34.3-13.6c-1-2-1.7-4.4-2.1-7c-9.5,12.4-21.3,22.1-34.2,21.8
		c-11.8-0.2-21.9-12.8-19.5-25.9c4.7-20,13.4-32.2,23.9-48.8c0.4-0.7,1.4-1.8,1.1-2.1c-0.6-0.9-13.2,1.8-14.9,2.2
		c-3.9,8.3-13.8,15.7-23.4,11.4c-2.5-1.1-4.4-2.7-3.6-4.5c0.5-1.2,9.9-11.1,8.7-12.2c-10.1-9-6.1-31.2,3.1-39.1
		c7-6.1,18.3-2.1,25,4.4c1.8,1.8,0.3,2.9-0.7,4.2c-2.6,3.2-9.2,13.7-8.9,17.6c0.2,3.6,8.2,2.1,10.4,1.9c6.9-0.8,11.7-2.2,19.1-2.4
		c5.1,1,15.8,4.8,15.7,8.4c0.3,2.6-4.8,9.4-6.9,12.5c-9.6,12.6-34.4,55.9-25.4,56.2c11,0.4,23.9-14.9,32.9-32.8
		c9.5-37.7,42.7-103.7,38.6-128.6c-1.2-5.3,3.9-4,3.9-4c8.1,2.6,18.4,8,19.9,17.1c1.3,7.6-3.4,22.8-5.9,30.1
		c-8.7,25.3-24.9,57.9-32.6,86.7c-1.5,4.6-7.3,32.9-0.4,32.9c4.8,0,13.9-11.2,16.7-14.9c5.2-6.9,8.7-15.2,10-19.4
		c-11.3-14-4.1-52.2,8.4-55.9c7.4,0,18.7,12.9,19.5,20.1c0.7,6.7-0.8,14.7-3,22.2c4.8-1.2,13.1-4.1,18.1-13.2
		c3.8-6.9,9.8-16.7,17.6-19.1c6.7-2.1,14.9-0.2,21,2.7c2.1-4.4,4.9-11.7,8.6-12.7c6.5,0,18.2,12.3,19.3,18.6
		c1.2,7.3-0.6,16.3-3.1,24.8c4.8,1.3,16.2-7.4,19.5-14.1c1.5-5.6,2.2-11.5,1.6-17.7c-0.5-2.8,3.2-2.1,4.8-1.8
		c14.4,2.9,17.9,10.1,16.9,19.2c-2.6,15.5-15.8,38.8-17.9,53.3c-0.3,2-1.3,6.9,2.2,5.7c3.8-1.3,14.7-14.1,17.6-18.1
		c7.5-10.5,13.3-23.8,18.1-35.1c5.9-13.8,9.2-31.2,29.5-22.8c4.2,1.6,2.5,3.1,1.2,6.7c-10.8,29.6-20.6,62.3-30.4,89.1
		c0,0,1.9-0.3,1.9-0.3c12-3.5,39.4-7.4,58.9-2.8c9.6,2.2,17.8,7.5,19.5,15.3C958.8,231,955.8,245.5,947.3,245.8z"/>
</g>
<path class="st0" d="M46,78.1c17-30,59.3-46.4,93.2-46.4c21.8,0,63.7,8.8,65.9,33c0.7,15-17.7,38.4-25.9,48.3
	c-11.5,13.8-26.9,26.4-43,35.4c9.3-18.4,32.4-53.4,32.5-77c0-12.8-11.5-25-23.8-24.1c-2.1,0.2-2,2-1.9,3.6
	c0.4,5.6-0.5,12.2-2.4,19.7c-5.3,21.6-19.5,51.3-30.5,79.9c-3.3,8.6-10.5,25.2-13.4,40.4c-1.8,9.3-3.7,20.9,3.8,28.3
	c3.3,3.3,8.2,5.1,13,5.8c3.1,0.3,2.7-1.4,2.6-4.1c-0.6-19.7,7.4-44,16.7-65.1c0.7,0.7,1.6,1.3,2.7,1.3c13.8,0.6,55.9-4.7,54,18.9
	c-2.1,25.7-54.9,65.7-83.6,70.1c-2.3,0.3-11.6,2.1-11-2.1c0.8-4.9,8-7.8,12.1-9.3c0.3-0.1,0.6-0.5,0.4-0.9
	c-1.7-5.6-10-11.2-17.2-11.1C80,223,76.9,236.9,80.2,244.6c4.7,11.1,16.6,15.7,28.4,15.5c35.3-0.4,108.6-53.1,108.5-86.3
	c-0.1-23-28.3-28.8-45.8-28.1c0,0-1,0.2,0.5-0.8c19.9-14.3,63.7-55.9,62.3-84.6c-3.4-34.9-61.8-46.3-96.1-45.2
	C96.3,14.9,34.3,36.4,18.5,75.3c-7.6,18.8-3.6,39.3,20.3,41.9c7.9,0.5,15.7-2.3,19.5-8.5c1.3-2.1,1.5-5.4-1.9-4.9
	C38.1,106.2,39.8,89.1,46,78.1 M526.5,166c0,0-0.8,0.6-0.8-0.1c1.8-10.3,13.6-38.6,27.6-38.6c3.4,0.2,2.8,3,1.7,6.7
	C550.6,147.1,538,159.3,526.5,166z M783.4,129.8L783.4,129.8c-2.8,9.1,0,22.7,6.4,31.1c-1.7,4.8-13,23.5-21.3,30
	c-1.7,1.4-6.3,4.8-8,3.6c-8.4-5.5,4.3-42.7,14.1-58C775.4,134.9,781.3,127.1,783.4,129.8z M281.8,128.6c-3.8,13.5-6,29.3-7.3,38.1
	c-8.1,12.7-21.2,29.9-26.1,27.6c-1.8-0.8-1.6-5.8-1.5-7.8c0.9-13,10.5-45.9,23.4-55.9C273.4,128.3,278.2,127,281.8,128.6z
	 M816,272.2c1.6-3.6,7.4-15.1,26.3-29.4c0,0-14.5,25.6-23.6,31.2C816.7,275.1,814.4,275.6,816,272.2z M723.8,168.3
	c0.4-0.8,0.7-1.7,1.1-2.5c0.4-1,0.8-2.2,1.2-3.4c5.7-1.3,10.3-3.4,14.2-6.1c-1.9,6-3.3,11.3-3.9,15.2c-1.3,8.9-3.2,18.7,2.5,26.2
	c4.9,6.5,14.1,10.9,22.7,11.6c5.8,0.5,9.7-1.5,14.6-4.3c12.9-7.4,23.9-23.2,30.4-39.3c0.3-0.7,0.6-1.5,0.9-2.4
	c6.9-1.1,12.1-3.7,16.3-7.2c-1.6,3.7-3.1,7.5-4.5,11.4c-3.5,9.2-6.2,19.1-4.8,27c0.4,2.3,0.9,3.1,2.2,5c3.2,4.5,10.9,9.5,16.6,9.5
	c13.8,0,25.5-15,33-24.9c-3.8,10-9.4,24.7-14,34.1l-0.8,1.5c-19.7,8-56.8,34.4-55.6,58.4c2.2,8.7,15,13.8,23.1,12.8
	c21.5-4.6,41.9-42.3,49.5-57.9c20.1-11.4,62.8-6,75.9,10.2c0,0,1.1,2.5,2.7,2.5c8.5-0.3,11.5-14.7,9.5-22c-1.7-7.7-9.9-13-19.5-15.3
	c-19.5-4.6-47-0.7-58.9,2.8c0,0-1.9,0.3-1.9,0.3c9.8-26.7,19.6-59.5,30.4-89.1c1.4-3.6,3-5.1-1.2-6.7c-20.4-8.4-23.7,9-29.5,22.8
	c-4.8,11.3-10.7,24.6-18.1,35.1c-2.9,4-13.9,16.8-17.6,18.1c-3.4,1.2-2.4-3.7-2.2-5.7c2-14.5,15.3-37.8,17.9-53.3
	c1-9.1-2.5-16.2-16.9-19.2c-1.6-0.3-5.3-1-4.8,1.8c0.6,6.2-0.2,12.1-1.6,17.7c-3.3,6.7-14.8,15.4-19.5,14.1
	c2.5-8.4,4.3-17.5,3.1-24.8c-1.1-6.3-12.8-18.6-19.3-18.6c-3.7,1-6.5,8.3-8.6,12.7c-6.1-2.9-14.4-4.8-21-2.7
	c-7.8,2.5-13.8,12.2-17.6,19.1c-5,9.1-13.3,12.1-18.1,13.2c2.2-7.6,3.7-15.5,3-22.2c-0.8-7.2-12.1-20.1-19.5-20.1
	c-12.5,3.7-19.7,41.9-8.4,55.9c-1.4,4.2-4.9,12.5-10,19.4c-2.8,3.7-11.8,14.9-16.7,14.9c-6.9,0-1.1-28.3,0.4-32.9
	c7.7-28.8,23.9-61.3,32.6-86.7c2.5-7.2,7.1-22.5,5.9-30.1c-1.5-9.1-11.8-14.5-19.9-17.1c0,0-5.1-1.3-3.9,4
	c4.1,24.9-29.1,90.9-38.6,128.6c-9,17.9-21.9,33.2-32.9,32.8c-9-0.3,15.7-43.6,25.4-56.2c2.1-3.1,7.2-9.9,6.9-12.5
	c0.1-3.7-10.6-7.4-15.7-8.4c-7.4,0.2-12.2,1.6-19.1,2.4c-2.3,0.3-10.2,1.7-10.4-1.9c-0.2-3.8,6.3-14.3,8.9-17.6
	c1-1.3,2.6-2.4,0.7-4.2c-6.8-6.4-18-10.4-25-4.4c-9.2,7.9-13.2,30.1-3.1,39.1c1.1,1.1-8.2,11-8.7,12.2c-0.8,1.8,1.1,3.4,3.6,4.5
	c9.6,4.2,19.4-3.2,23.4-11.4c1.8-0.4,14.3-3,14.9-2.2c0.3,0.4-0.7,1.5-1.1,2.1c-10.5,16.6-19.2,28.9-23.9,48.8
	c-2.4,13.1,7.6,25.7,19.5,25.9c12.9,0.3,24.7-9.4,34.2-21.8c0.4,2.6,1.1,4.9,2.1,7c5.7,11.3,22.5,17.8,34.3,13.6
	c8.9-3.1,16.3-11.1,22.8-19.8C716.5,183.6,720.5,176.4,723.8,168.3L723.8,168.3z M406.8,195.1c0.3,5.8,11.1,12.8,16.3,12.7
	c1.3,0,3-0.4,4.3-2.1c0.4,0.4,20.4-41,40-59.3c0,0,0.3-0.4,0.5-0.3c0.1,0.1-0.2,0.4-0.6,1.6c-5.4,14.4-28.4,59.8,5.4,60.3
	c8.9,0.2,18.9-8.8,27.2-19.3c0.4,2.9,1.2,5.7,2.5,8.2c3.2,6.2,9.4,12,20.6,13.1c22.3,0.5,55.3-17.3,65-36.5c1.4-2.5,0.6-5.1-0.9-7.8
	c-2.7-4.5-8-8.5-11.1-7.9c-0.9,0.2-1.4,1.2-2.5,3c-6.2,10.1-35.4,36.1-48,34.4c-4.5-0.6-3.8-13-2.8-13.4c0.2-0.1,0.5-0.3,1-0.5
	c50.1-16.3,72.2-80.6,39.3-82.5c-5.3-0.3-11.1,2.9-14,7.4c-0.5,0.9-1,1.5-0.3,2.6c0.7,1.1,6.6,5.8,8.1,9.9
	c-5.2-3.2-13.8-7.7-19.9-6.7c-12.1,2.1-22.4,20.8-29.3,39.2c-3.5,9.4-19.4,40-29.1,39.5c-7.8-0.4,18.1-64.1,20.6-68.9
	c0,0,0.9-1.8-0.2-2.8c-6-5.2-17.3-11.1-25.4-4.6c-4.3,3.4-14.2,14-34.9,47.4c-0.1,0.1-0.7,1.3-0.8,1.2c0,0,0-0.1,0-0.2
	c1.4-8.1,9.9-21,10.5-35.6c-0.1-10.5-9.3-14.4-18.5-16.1c-1.7-0.4-3.5,0.1-3.3,2.1c0.9,12.2-3.3,25.5-8.1,38.6
	c-4.1,11.4-11.4,24.7-20.5,32.8c-3.5,3.7-7,6.1-10,6.1c-7.8-0.2,17.3-64.5,19.9-69.3c0,0,0.9-1.8-0.3-2.8
	c-9.2-7.8-19.1-11.5-29.4-0.5c-5.4,5.8-14.6,17.7-29.4,42.5c-0.2,0.3-1.1,2-1.2,1.9c0,0,0-0.1,0-0.2c2.7-12.6,10.7-26,9.6-39.7
	c-0.7-9.1-6.7-13.1-19.3-15.5c-1.8-0.4-3.5,0-3.3,2.1c0.6,10.7-2.3,22.8-5.9,35c-3.7,12.3-20.4,46.5-32.3,46.3
	c-3.5-0.1-2.7-13.2,1.3-28c6.1-10.3,16.3-27.7,17.3-38.4c0.7-7.6-5.9-14-12-17.8c-3.3-2.1-6.9-4.8-10.2-1.2c-2.8,3.1-5,7.2-7.4,12.9
	c-1.5-0.9-3.4-1.9-5.5-2.8c-5.7-2.5-14.1-4.7-20.2-2.8c-21.1,6.4-36.7,60.2-36,77c0.5,12.2,13.1,20.4,24.5,20.3
	c8.2,0,17.8-7.9,25.5-16.9c1.7,7.7,5.9,13.8,14.6,14.7c9.4,0.9,19.9-7.8,28.6-18.3c-0.4,3.7-0.8,6.7,1.6,9.9
	c3.4,4.4,10.5,8.3,14.4,8.3c1.3,0,3-0.4,4.3-2.1c0.4,0.4,20-41,39.5-59.3c0,0,0.3-0.4,0.5-0.3c0.1,0.1-0.2,0.4-0.6,1.6
	c-5.2,14.2-27.3,57.7,4.4,60.3c8.5,0.1,17.9-7.1,26.1-16C406.8,193,406.8,194.1,406.8,195.1z"/>
</svg>
